<svg id="Layer_1" enable-background="new 0 0 512.897 512.897" height="512" viewBox="0 0 512.897 512.897" width="512" xmlns="http://www.w3.org/2000/svg"><g><path d="m249.392 199.95c1.885-1.885 4.391-2.923 7.057-2.923s5.172 1.038 7.057 2.923c1.407 1.407 3.314 2.197 5.304 2.197 1.989 0 3.897-.79 5.303-2.197l56.939-56.94c2.929-2.929 2.929-7.678 0-10.606-1.885-1.885-2.923-4.392-2.923-7.057 0-2.666 1.038-5.172 2.923-7.057 1.407-1.407 2.197-3.314 2.197-5.304 0-1.989-.79-3.897-2.197-5.303l-56.939-56.939c-2.929-2.929-7.678-2.929-10.607 0-1.885 1.885-4.391 2.923-7.057 2.923s-5.172-1.038-7.057-2.923c-2.929-2.929-7.678-2.929-10.606 0l-56.939 56.939c-1.407 1.406-2.197 3.314-2.197 5.303s.79 3.897 2.197 5.304c1.885 1.885 2.923 4.391 2.923 7.057s-1.038 5.172-2.923 7.057c-2.929 2.929-2.929 7.678 0 10.606l56.939 56.94c1.406 1.407 3.314 2.197 5.303 2.197s3.896-.79 5.303-2.197zm-52.442-63.048c1.843-3.524 2.819-7.464 2.819-11.555 0-4.09-.977-8.031-2.819-11.555l47.952-47.951c7.211 3.753 15.884 3.753 23.095 0l47.952 47.951c-1.843 3.524-2.819 7.464-2.819 11.555 0 4.09.977 8.03 2.819 11.555l-47.944 47.944c-3.524-1.843-7.464-2.819-11.555-2.819s-8.031.977-11.555 2.819z"/><path d="m274.112 143.011c4.718-4.718 7.317-10.991 7.317-17.664s-2.599-12.946-7.316-17.663c-4.718-4.718-10.991-7.317-17.664-7.317s-12.946 2.599-17.664 7.316c-4.718 4.718-7.317 10.991-7.317 17.664 0 6.672 2.599 12.945 7.317 17.664 4.718 4.718 10.991 7.316 17.664 7.316 6.672 0 12.946-2.598 17.663-7.316zm-27.644-17.664c0-2.666 1.038-5.172 2.924-7.057 1.885-1.885 4.391-2.923 7.057-2.923s5.172 1.038 7.057 2.924c1.885 1.885 2.923 4.391 2.923 7.057s-1.038 5.172-2.923 7.057c-3.892 3.892-10.223 3.892-14.114 0-1.886-1.886-2.924-4.392-2.924-7.058z"/><path d="m501.328 228.518-85.847-85.847c-7.46-7.461-17.379-11.569-27.931-11.569-2.115 0-4.202.173-6.252.497.324-2.049.497-4.137.497-6.252 0-10.551-4.108-20.47-11.569-27.931l-85.847-85.847c-7.46-7.46-17.379-11.569-27.93-11.569s-20.47 4.109-27.931 11.569l-85.847 85.847c-7.461 7.46-11.569 17.379-11.569 27.931 0 2.115.173 4.202.497 6.252-2.049-.324-4.137-.497-6.252-.497-10.551 0-20.47 4.108-27.931 11.569l-85.847 85.847c-7.46 7.461-11.569 17.38-11.569 27.931s4.109 20.47 11.569 27.931l85.847 85.847c7.46 7.461 17.379 11.569 27.931 11.569 2.115 0 4.202-.173 6.252-.497-.324 2.049-.497 4.137-.497 6.252 0 10.551 4.108 20.47 11.569 27.931l85.847 85.847c7.46 7.46 17.38 11.569 27.931 11.569s20.47-4.109 27.931-11.569l85.847-85.847c7.461-7.46 11.569-17.379 11.569-27.931 0-2.115-.173-4.202-.497-6.252 2.049.324 4.137.497 6.252.497 10.551 0 20.47-4.108 27.931-11.569l85.847-85.847c7.46-7.461 11.569-17.38 11.569-27.931-.001-10.551-4.109-20.47-11.57-27.931zm-355.226-103.171c0-6.544 2.548-12.697 7.176-17.324l85.847-85.847c4.776-4.776 11.05-7.165 17.324-7.165s12.548 2.388 17.324 7.165l85.847 85.847c4.627 4.627 7.176 10.78 7.176 17.324s-2.548 12.697-7.176 17.324l-85.847 85.847c-9.553 9.553-25.096 9.553-34.648 0l-85.847-85.847c-4.628-4.627-7.176-10.78-7.176-17.324zm116.598 124.85c-.324 2.049-.497 4.137-.497 6.252s.173 4.202.497 6.252c-2.049-.324-4.137-.497-6.252-.497s-4.202.173-6.252.497c.324-2.049.497-4.137.497-6.252s-.173-4.202-.497-6.252c2.049.324 4.137.497 6.252.497 2.116 0 4.203-.173 6.252-.497zm-137.353 116.598c-6.544 0-12.697-2.548-17.324-7.176l-85.847-85.847c-9.552-9.553-9.552-25.096 0-34.648l85.847-85.847c4.628-4.627 10.78-7.176 17.324-7.176s12.697 2.548 17.324 7.176l85.847 85.847c9.553 9.553 9.553 25.096 0 34.648l-85.847 85.847c-4.627 4.628-10.78 7.176-17.324 7.176zm241.448 20.755c0 6.544-2.548 12.697-7.176 17.324l-85.847 85.847c-9.553 9.553-25.096 9.553-34.648 0l-85.847-85.847c-4.627-4.628-7.176-10.78-7.176-17.324s2.548-12.697 7.176-17.324l85.847-85.847c9.553-9.553 25.096-9.553 34.648 0l85.847 85.847c4.628 4.628 7.176 10.78 7.176 17.324zm123.927-113.777-85.847 85.847c-4.628 4.627-10.78 7.176-17.324 7.176s-12.697-2.548-17.324-7.176l-85.847-85.847c-9.553-9.553-9.553-25.096 0-34.648l85.847-85.847c4.628-4.627 10.78-7.176 17.324-7.176s12.697 2.548 17.324 7.176l85.847 85.847c9.552 9.552 9.552 25.095 0 34.648z"/><path d="m462.153 238.785-56.939-56.939c-1.406-1.407-3.314-2.197-5.303-2.197s-3.897.79-5.304 2.197c-1.885 1.885-4.391 2.923-7.057 2.923s-5.172-1.038-7.057-2.923c-2.929-2.929-7.678-2.929-10.606 0l-56.94 56.939c-1.407 1.406-2.197 3.314-2.197 5.303s.79 3.897 2.197 5.304c1.885 1.885 2.923 4.391 2.923 7.057s-1.038 5.172-2.923 7.057c-1.407 1.407-2.197 3.315-2.197 5.304s.79 3.897 2.197 5.303l56.94 56.939c2.929 2.929 7.678 2.929 10.606 0 1.885-1.885 4.392-2.923 7.057-2.923 2.666 0 5.172 1.038 7.057 2.923 1.407 1.407 3.315 2.197 5.304 2.197s3.897-.79 5.303-2.197l56.939-56.939c2.929-2.929 2.929-7.678 0-10.606-1.885-1.885-2.923-4.391-2.923-7.057s1.038-5.172 2.923-7.057c2.929-2.93 2.929-7.679 0-10.608zm-15.096 29.211-47.952 47.952c-3.524-1.843-7.464-2.819-11.555-2.819-4.09 0-8.03.977-11.555 2.819l-47.944-47.944c1.843-3.524 2.819-7.464 2.819-11.555s-.977-8.031-2.819-11.555l47.944-47.944c3.524 1.843 7.464 2.819 11.555 2.819 4.09 0 8.031-.977 11.555-2.819l47.952 47.952c-3.753 7.211-3.753 15.883 0 23.094z"/><path d="m397.031 231.468h-18.96c-8.547 0-15.5 6.953-15.5 15.5v18.961c0 8.547 6.953 15.5 15.5 15.5h18.96c8.547 0 15.5-6.953 15.5-15.5v-18.961c0-8.547-6.953-15.5-15.5-15.5zm.5 34.461c0 .276-.224.5-.5.5h-18.96c-.276 0-.5-.224-.5-.5v-18.961c0-.276.224-.5.5-.5h18.96c.276 0 .5.224.5.5z"/><path d="m136.307 232.082c-6.044-6.043-15.877-6.044-21.92 0l-13.406 13.407c-2.928 2.928-4.54 6.82-4.54 10.96 0 4.141 1.612 8.033 4.54 10.96l13.407 13.407c3.022 3.022 6.991 4.532 10.96 4.532s7.939-1.511 10.96-4.533l13.407-13.407c2.928-2.927 4.54-6.82 4.54-10.96s-1.612-8.033-4.54-10.96zm2.801 24.72-13.407 13.407c-.195.195-.513.195-.708 0l-13.407-13.407c-.036-.036-.146-.146-.146-.353 0-.206.11-.317.146-.353l13.406-13.407c.195-.195.512-.195.708 0l13.407 13.407c.036.036.146.146.146.353s-.109.317-.145.353z"/><path d="m202.147 244.088c0-1.989-.79-3.897-2.197-5.303l-56.939-56.939c-2.929-2.929-7.678-2.929-10.606 0-1.885 1.885-4.392 2.923-7.057 2.923-2.666 0-5.172-1.038-7.057-2.923-1.407-1.407-3.314-2.197-5.304-2.197-1.989 0-3.897.79-5.303 2.197l-56.939 56.939c-2.929 2.929-2.929 7.678 0 10.606 1.885 1.885 2.923 4.391 2.923 7.057s-1.038 5.172-2.923 7.057c-2.929 2.929-2.929 7.678 0 10.606l56.939 56.939c1.406 1.407 3.314 2.197 5.303 2.197s3.897-.79 5.304-2.197c1.885-1.885 4.391-2.923 7.057-2.923s5.172 1.038 7.057 2.923c2.929 2.929 7.678 2.929 10.606 0l56.939-56.939c1.407-1.406 2.197-3.314 2.197-5.303s-.79-3.897-2.197-5.304c-1.885-1.885-2.923-4.391-2.923-7.057s1.038-5.172 2.923-7.057c1.407-1.405 2.197-3.312 2.197-5.302zm-17.301 23.915-47.944 47.944c-3.524-1.843-7.464-2.819-11.555-2.819-4.09 0-8.031.977-11.555 2.819l-47.952-47.952c3.753-7.212 3.753-15.883 0-23.095l47.952-47.952c3.524 1.843 7.464 2.819 11.555 2.819 4.09 0 8.03-.977 11.555-2.819l47.944 47.944c-1.843 3.524-2.819 7.464-2.819 11.555 0 4.093.976 8.033 2.819 11.556z"/><path d="m263.505 312.947c-1.885 1.885-4.391 2.923-7.057 2.923s-5.172-1.038-7.057-2.923c-1.407-1.407-3.314-2.197-5.304-2.197-1.989 0-3.897.79-5.303 2.197l-56.939 56.939c-2.929 2.929-2.929 7.678 0 10.606 1.885 1.885 2.923 4.392 2.923 7.057 0 2.666-1.038 5.172-2.923 7.057-1.407 1.407-2.197 3.315-2.197 5.304s.79 3.897 2.197 5.303l56.939 56.94c2.929 2.929 7.678 2.929 10.606 0 1.885-1.885 4.391-2.923 7.057-2.923s5.172 1.038 7.057 2.923c1.464 1.464 3.384 2.197 5.303 2.197s3.839-.733 5.303-2.197l56.939-56.94c1.407-1.406 2.197-3.314 2.197-5.303s-.79-3.897-2.197-5.304c-1.885-1.885-2.923-4.391-2.923-7.057s1.038-5.172 2.923-7.057c2.929-2.929 2.929-7.678 0-10.606l-56.939-56.939c-1.406-1.407-3.314-2.197-5.303-2.197-1.987.001-3.895.791-5.302 2.197zm52.443 63.049c-1.843 3.524-2.819 7.464-2.819 11.555 0 4.09.977 8.031 2.819 11.555l-47.952 47.952c-3.605-1.876-7.577-2.814-11.547-2.814-3.971 0-7.942.938-11.547 2.814l-47.952-47.952c1.843-3.524 2.819-7.464 2.819-11.555 0-4.09-.977-8.03-2.819-11.555l47.944-47.944c3.524 1.843 7.464 2.819 11.555 2.819s8.031-.977 11.555-2.819z"/><path d="m256.449 359.132c-4.749 0-9.019 2.639-11.142 6.886l-15.962 31.924c-1.944 3.89-1.74 8.421.546 12.12s6.247 5.907 10.596 5.907h31.924c4.348 0 8.31-2.208 10.596-5.907 2.287-3.699 2.491-8.23.546-12.121l-15.961-31.923c-2.125-4.247-6.394-6.886-11.143-6.886zm-11.847 41.837 11.847-23.694 11.847 23.694z"/></g></svg>